<svg width="49" height="48" viewBox="0 0 49 48" fill="none" xmlns="http://www.w3.org/2000/svg">
<g clip-path="url(#clip0_1958_2845)">
<g clip-path="url(#clip1_1958_2845)">
<mask id="mask0_1958_2845" style="mask-type:luminance" maskUnits="userSpaceOnUse" x="0" y="20" width="49" height="10">
<path d="M48.5898 20H0.589844V29.4884H48.5898V20Z" fill="white"/>
</mask>
<g mask="url(#mask0_1958_2845)">
<path fill-rule="evenodd" clip-rule="evenodd" d="M32.4986 20.0036H40.8592V21.5168H37.5424V29.4774H35.8838V21.5168H32.4986V20.0036ZM47.821 26.5138C47.8032 26.3464 47.7244 26.215 47.5876 26.1212C47.4488 26.0266 47.2708 25.9796 47.0514 25.9796C46.8976 25.9796 46.7654 26.0026 46.6548 26.0476C46.5452 26.0928 46.4598 26.1534 46.4008 26.2306C46.3426 26.3078 46.3136 26.396 46.3108 26.4944C46.3108 26.5772 46.3314 26.6488 46.3708 26.7086C46.4102 26.7692 46.4626 26.8208 46.531 26.8622C46.5986 26.9044 46.6736 26.9384 46.756 26.967C46.8394 26.9954 46.922 27.0192 47.0054 27.0386L47.3888 27.1306C47.5426 27.1654 47.6916 27.2124 47.8352 27.272C47.9776 27.331 48.107 27.4054 48.2204 27.4954C48.3338 27.5856 48.4238 27.694 48.4894 27.8208C48.556 27.9486 48.5898 28.0976 48.5898 28.2686C48.5898 28.5002 48.5288 28.7034 48.407 28.879C48.2842 29.0536 48.108 29.1906 47.8764 29.2888C47.6458 29.3872 47.3672 29.4368 47.0392 29.4368C46.7222 29.4368 46.4458 29.389 46.2132 29.2934C45.9798 29.1988 45.797 29.06 45.6658 28.878C45.5344 28.695 45.4642 28.4726 45.4538 28.2106H46.1814C46.1916 28.3476 46.2366 28.4616 46.3136 28.5544C46.3904 28.6454 46.4916 28.7126 46.6154 28.7584C46.7402 28.8026 46.8798 28.8256 47.0336 28.8256C47.1938 28.8256 47.3354 28.8018 47.4582 28.7548C47.5792 28.708 47.6748 28.6436 47.7432 28.5582C47.8136 28.4754 47.8482 28.376 47.8492 28.263C47.8482 28.16 47.8164 28.0746 47.7564 28.0066C47.6944 27.9394 47.6092 27.8834 47.4994 27.8374C47.3898 27.7924 47.2614 27.751 47.1152 27.7152L46.6502 27.6002C46.3144 27.5166 46.0482 27.3888 45.8532 27.2188C45.6582 27.0478 45.5616 26.8226 45.5616 26.5394C45.5616 26.3068 45.6264 26.1028 45.7586 25.9282C45.8888 25.7536 46.067 25.6174 46.293 25.521C46.5198 25.4236 46.7758 25.3758 47.0616 25.3758C47.3514 25.3758 47.6054 25.4236 47.8248 25.521C48.0432 25.6174 48.2158 25.7516 48.3404 25.9236C48.4652 26.0954 48.5298 26.2912 48.5336 26.5138H47.821ZM44.0626 25.429H44.7976V28.2042C44.7966 28.4598 44.7404 28.6776 44.6298 28.8614C44.5192 29.0452 44.3644 29.185 44.1676 29.2834C43.9708 29.3818 43.7402 29.4314 43.4786 29.4314C43.2394 29.4314 43.0248 29.389 42.8336 29.3064C42.6424 29.2236 42.4904 29.1004 42.3798 28.9378C42.2674 28.7742 42.212 28.5718 42.212 28.3282H42.948C42.9488 28.435 42.9742 28.5268 43.021 28.604C43.068 28.6812 43.1336 28.7402 43.216 28.7814C43.3004 28.8228 43.398 28.843 43.5066 28.843C43.6248 28.843 43.7252 28.8192 43.8076 28.7704C43.8892 28.7226 43.953 28.651 43.996 28.5554C44.0392 28.4606 44.0616 28.344 44.0626 28.2042V25.429ZM41.2322 29.4194C41.1104 29.4194 41.0074 29.378 40.921 29.2954C40.8348 29.2136 40.7916 29.1134 40.7926 28.9948C40.7916 28.8798 40.8348 28.7814 40.921 28.6988C41.0074 28.616 41.1104 28.5746 41.2322 28.5746C41.3494 28.5746 41.4516 28.616 41.538 28.6988C41.6252 28.7814 41.6692 28.8798 41.6702 28.9948C41.6692 29.0728 41.6494 29.1446 41.6082 29.209C41.567 29.2742 41.5144 29.3248 41.448 29.3624C41.3824 29.4002 41.311 29.4194 41.2322 29.4194ZM10.3886 29.4066L2.66266 20H0.589844V29.4736H2.24828V22.025L8.36266 29.4774H18.7483V27.9642H12.0461V25.464H17.4358V23.9508H12.0461V21.5168H18.7483V20.0036H10.3877V21.5168L10.3886 29.4066ZM25.1504 26.7748L24.063 25.4492L20.747 29.4884H22.923L25.1504 26.7748ZM22.923 20.0082H20.7526L28.5264 29.481H30.7024L26.8154 24.7478L30.6966 20.0148L28.5264 20.0184L25.7288 23.425L22.923 20.0082Z" fill="white"/>
</g>
</g>
</g>
<defs>
<clipPath id="clip0_1958_2845">
<rect width="48" height="48" fill="white" transform="translate(0.589844)"/>
</clipPath>
<clipPath id="clip1_1958_2845">
<rect width="48" height="48" fill="white" transform="translate(0.589844)"/>
</clipPath>
</defs>
</svg>
