<svg width="49" height="48" viewBox="0 0 49 48" fill="none" xmlns="http://www.w3.org/2000/svg">
<g clip-path="url(#clip0_1958_2910)">
<g clip-path="url(#clip1_1958_2910)">
<g clip-path="url(#clip2_1958_2910)">
<mask id="mask0_1958_2910" style="mask-type:luminance" maskUnits="userSpaceOnUse" x="0" y="4" width="49" height="40">
<path d="M48.5898 4H0.589844V44H48.5898V4Z" fill="white"/>
</mask>
<g mask="url(#mask0_1958_2910)">
<path fill-rule="evenodd" clip-rule="evenodd" d="M40.7448 6.83401L41.7566 8.19356C42.0222 8.55236 41.9558 9.06669 41.6042 9.33781L40.5298 10.1711C40.7252 10.7013 40.8502 11.2674 40.901 11.8456L42.1238 12.017C42.5612 12.0768 42.866 12.4914 42.8074 12.938L42.5808 14.6324C42.5222 15.0789 42.116 15.3939 41.6784 15.3301L40.3424 15.1427C40.104 15.673 39.7994 16.1594 39.44 16.594L40.19 17.5987C40.4556 17.9575 40.3854 18.4718 40.0338 18.7429L38.7016 19.7755C38.35 20.0466 37.8462 19.9749 37.5806 19.62L36.764 18.5236C36.2406 18.723 35.6898 18.8506 35.1194 18.9024L34.9514 20.1502C34.8928 20.5968 34.4866 20.9078 34.049 20.848L32.3888 20.6168C31.9512 20.557 31.6466 20.1424 31.7052 19.6958L31.8888 18.3323C31.3732 18.0891 30.8926 17.7781 30.4668 17.4153L29.4824 18.1768C29.1308 18.4479 28.6268 18.3801 28.3612 18.0213L27.3494 16.6617C27.0838 16.3029 27.1502 15.7886 27.5018 15.5175L28.576 14.6842C28.3808 14.15 28.2558 13.5878 28.205 13.0097L26.9822 12.8383C26.5448 12.7785 26.236 12.3639 26.2986 11.9173L26.5252 10.2229C26.5876 9.77635 26.99 9.46536 27.4276 9.52517L28.7636 9.71256C29.0018 9.18629 29.3066 8.69591 29.662 8.26133L28.916 7.25663C28.6502 6.90179 28.7168 6.38747 29.0682 6.11637L30.4004 5.08377C30.752 4.81265 31.256 4.88043 31.5216 5.23925L32.338 6.33565C32.8576 6.13631 33.4122 6.00873 33.9788 5.95689L34.1468 4.70899C34.2054 4.26245 34.6116 3.94749 35.0492 4.00729L36.7094 4.23853C37.1468 4.29835 37.4554 4.71297 37.393 5.15951L37.2094 6.52303C37.729 6.76623 38.2056 7.0772 38.6352 7.44401L39.6196 6.68253C39.9712 6.40741 40.4752 6.47519 40.7448 6.83401ZM12.1807 30.7594V24.181H15.5011C16.1185 24.181 16.5871 24.2328 16.9115 24.3446C17.2357 24.4522 17.5013 24.6514 17.6967 24.9426C17.8959 25.2376 17.9975 25.5924 17.9975 26.011C17.9975 26.3738 17.9193 26.6928 17.7669 26.956C17.6145 27.223 17.4037 27.4384 17.1381 27.6018C16.9701 27.7056 16.7357 27.7932 16.4387 27.861C16.6771 27.9446 16.8489 28.0204 16.9543 28.104C17.0287 28.16 17.1341 28.2758 17.2709 28.451C17.4075 28.6266 17.5013 28.766 17.5481 28.8616L18.5169 30.7634H16.2669L15.2043 28.758C15.0675 28.499 14.9503 28.3276 14.8449 28.2516C14.7003 28.152 14.5363 28.1002 14.3565 28.1002H14.1807V30.7634H12.1807V30.7594ZM19.2045 42.2138H15.4855L14.9503 44H11.5987L15.5949 33.1596H19.1889L23.1696 44H19.7319L19.2045 42.2138ZM18.5091 39.8656L17.3489 35.9664L16.1849 39.8656H18.5091ZM23.943 33.1596H29.4042C30.5958 33.1596 31.4864 33.4468 32.0762 34.0246C32.6662 34.6028 32.963 35.4282 32.963 36.4926C32.963 37.589 32.6388 38.4464 31.9942 39.0642C31.3496 39.6822 30.3614 39.9892 29.037 39.9892H27.2362V44H23.943V33.1596ZM27.2362 37.7924H28.0448C28.6816 37.7924 29.1308 37.6808 29.3886 37.4534C29.6464 37.2302 29.7754 36.9392 29.7754 36.5922C29.7754 36.2534 29.662 35.9624 29.4394 35.7272C29.2168 35.4918 28.7948 35.3722 28.1776 35.3722H27.2362V37.7924ZM34.2912 33.1596H37.5844V44H34.2912V33.1596ZM14.1807 26.8522H15.0207C15.1105 26.8522 15.2863 26.8204 15.5481 26.7606C15.6809 26.7326 15.7903 26.6648 15.8723 26.5532C15.9583 26.4416 15.9973 26.314 15.9973 26.1706C15.9973 25.9592 15.9309 25.7918 15.7981 25.6802C15.6653 25.5644 15.4191 25.5088 15.0559 25.5088H14.1807V26.8522ZM18.8999 24.181H24.232V25.5844H20.8998V26.633H23.9898V27.9726H20.8998V29.2684H24.3298V30.7556H18.8999V24.181ZM24.8024 28.5826L26.6932 28.463C26.7322 28.778 26.8182 29.0132 26.9432 29.1768C27.1502 29.4398 27.4432 29.5754 27.8222 29.5754C28.1034 29.5754 28.326 29.5076 28.4784 29.372C28.6308 29.2366 28.7088 29.077 28.7088 28.8976C28.7088 28.7262 28.6346 28.5746 28.4902 28.4392C28.3456 28.3034 28.0058 28.18 27.4706 28.0564C26.5994 27.857 25.9782 27.5898 25.6032 27.259C25.2282 26.928 25.0408 26.5056 25.0408 25.991C25.0408 25.6522 25.1384 25.3332 25.3298 25.0342C25.5212 24.7354 25.8102 24.4962 26.197 24.3246C26.5838 24.1532 27.1112 24.0694 27.783 24.0694C28.6074 24.0694 29.2324 24.225 29.666 24.5398C30.0956 24.8548 30.3536 25.3492 30.4356 26.0348L28.5644 26.1506C28.5136 25.8516 28.408 25.6322 28.2518 25.5008C28.0916 25.3652 27.869 25.2974 27.5916 25.2974C27.3612 25.2974 27.1854 25.3492 27.0682 25.449C26.951 25.5486 26.8924 25.6722 26.8924 25.8158C26.8924 25.9194 26.9432 26.011 27.037 26.0988C27.1306 26.1824 27.3494 26.2662 27.701 26.342C28.5722 26.5332 29.1972 26.7288 29.5722 26.924C29.9472 27.1194 30.2246 27.3626 30.3926 27.6536C30.5644 27.9408 30.6504 28.2676 30.6504 28.6266C30.6504 29.049 30.5372 29.4358 30.3066 29.7906C30.08 30.1456 29.7598 30.4166 29.3496 30.6C28.9394 30.7834 28.4238 30.8752 27.7986 30.8752C26.7048 30.8752 25.9432 30.6598 25.5212 30.2292C25.0994 29.7906 24.861 29.2444 24.8024 28.5826ZM30.9394 24.181H36.9984V25.8078H34.967V30.7594H32.9748V25.8078H30.9394V24.181ZM24.236 8.56831C23.521 8.51251 22.7984 8.52047 22.0836 8.59225C19.8843 8.80755 17.7475 9.62484 15.9817 11.0242C13.9385 12.639 12.3877 15.055 11.7901 18.2565L11.6025 19.2572L10.6259 19.4327C9.6689 19.6041 8.8133 19.8393 8.0633 20.1384C7.3367 20.4254 6.6881 20.7802 6.1217 21.1988C5.6685 21.5338 5.2779 21.9086 4.9459 22.3152C3.9185 23.571 3.4419 25.146 3.4537 26.7406C3.4653 28.3594 3.9809 29.9938 4.9341 31.3376C5.2897 31.836 5.6999 32.2944 6.1687 32.693C6.6453 33.0958 7.1803 33.4306 7.7819 33.6818C8.1219 33.8254 8.4851 33.9452 8.8641 34.0406V37.027C8.0827 36.8832 7.3639 36.6682 6.6921 36.385C5.8053 36.0102 5.0201 35.5278 4.3287 34.9378C3.6723 34.3796 3.0981 33.7458 2.6099 33.056C1.3089 31.222 0.605703 28.9812 0.590103 26.7486C0.574503 24.492 1.2621 22.2474 2.7465 20.4294C3.2271 19.8393 3.7935 19.2971 4.4419 18.8187C5.1959 18.2605 6.0593 17.79 7.0359 17.4033C7.7077 17.1362 8.4265 16.9129 9.1845 16.7335C10.0439 13.2489 11.8759 10.5658 14.2315 8.70389C16.4349 6.96161 19.0873 5.94493 21.8178 5.67781C23.2516 5.53827 24.7048 5.60207 26.1268 5.87317C26.0954 6.00473 26.0682 6.13631 26.0524 6.27187L26.0486 6.29579C26.0212 6.52303 26.0096 6.75029 26.0212 6.98155C25.7204 7.10113 25.4392 7.26461 25.1852 7.46395L25.1736 7.47193C24.7946 7.76297 24.4742 8.13775 24.236 8.56831ZM44.9052 16.2232C45.124 16.4265 45.3348 16.6378 45.542 16.8651C45.9598 17.3236 46.3544 17.8419 46.7256 18.42C47.9756 20.3816 48.6164 23.001 48.589 25.5644C48.5616 28.0802 47.8976 30.584 46.538 32.426C45.6512 33.6262 44.5146 34.6068 43.1512 35.3842C42.2174 35.9186 41.1666 36.361 40.022 36.72V33.63C40.6392 33.3948 41.2136 33.1316 41.741 32.8326C42.7684 32.2466 43.6082 31.5328 44.2372 30.6758C45.2138 29.3482 45.6942 27.4702 45.7138 25.5444C45.7372 23.5232 45.2528 21.4938 44.3114 20.0188C44.0418 19.5921 43.745 19.2094 43.4324 18.8665C43.3114 18.7349 43.1902 18.6113 43.0652 18.4917C43.0848 18.2924 43.0926 18.0891 43.0808 17.8857C43.3816 17.7661 43.6628 17.6027 43.9168 17.4033L43.9286 17.3953C44.3308 17.0804 44.6668 16.6817 44.9052 16.2232ZM34.9984 9.10257C36.7992 9.35375 38.057 11.0482 37.811 12.8861C37.5648 14.7241 35.9046 16.0119 34.1038 15.7607C32.3028 15.5095 31.041 13.8151 31.291 11.9771C31.541 10.1392 33.1974 8.85139 34.9984 9.10257Z" fill="#01B5E6"/>
</g>
</g>
</g>
</g>
<defs>
<clipPath id="clip0_1958_2910">
<rect width="48" height="48" fill="white" transform="translate(0.589844)"/>
</clipPath>
<clipPath id="clip1_1958_2910">
<rect width="48" height="48" fill="white" transform="translate(0.589844)"/>
</clipPath>
<clipPath id="clip2_1958_2910">
<rect width="48" height="48" fill="white" transform="translate(0.589844)"/>
</clipPath>
</defs>
</svg>
