<svg width="49" height="48" viewBox="0 0 49 48" fill="none" xmlns="http://www.w3.org/2000/svg">
<g clip-path="url(#clip0_1958_2820)">
<g clip-path="url(#clip1_1958_2820)">
<mask id="mask0_1958_2820" style="mask-type:luminance" maskUnits="userSpaceOnUse" x="0" y="0" width="49" height="48">
<path d="M48.9785 0H0.978516V48H48.9785V0Z" fill="white"/>
</mask>
<g mask="url(#mask0_1958_2820)">
<path d="M24.4359 0.000466662C22.6023 0.00203824 20.7723 0.157762 18.9649 0.465992C14.1174 1.32017 13.2376 3.11394 13.2376 6.4196V10.7844H24.6879V12.2365H8.9411C5.61408 12.2365 2.69708 14.2396 1.78738 18.0449C0.7282 22.4056 0.689762 25.126 1.78738 29.683C2.59884 33.0742 4.54636 35.4872 7.87338 35.4872H11.8325V30.2554C11.8709 28.3778 12.6353 26.588 13.9652 25.2622C15.2952 23.9362 17.0871 23.1772 18.9649 23.1444H30.4023C31.9307 23.132 33.3919 22.514 34.4655 21.426C35.5391 20.338 36.1375 18.8687 36.1295 17.3402V6.4196C36.1295 3.31466 33.5115 0.982768 30.4023 0.465992C28.4297 0.146018 26.4341 -0.00969186 24.4359 0.000466662ZM18.2388 3.51112C18.6721 3.5018 19.0984 3.62172 19.4634 3.8556C19.8283 4.08946 20.1153 4.4267 20.2879 4.82434C20.4604 5.22196 20.5106 5.66194 20.4321 6.08822C20.3536 6.5145 20.15 6.90774 19.8472 7.21784C19.5443 7.52794 19.156 7.74084 18.7317 7.82942C18.3074 7.91798 17.8664 7.8782 17.4648 7.71516C17.0632 7.5521 16.7192 7.27316 16.4768 6.91388C16.2343 6.5546 16.1043 6.13126 16.1034 5.69782C16.0999 5.12566 16.3222 4.5752 16.7219 4.16584C17.1217 3.75648 17.6667 3.52124 18.2388 3.51112Z" fill="url(#paint0_linear_1958_2820)"/>
<path d="M37.5546 12.2363V17.34C37.5546 21.282 34.2106 24.6006 30.401 24.6006H18.9636C17.4407 24.6306 15.9898 25.254 14.92 26.3382C13.8502 27.4224 13.246 28.8816 13.2363 30.4046V41.3082C13.2363 44.4088 15.9355 46.2368 18.9636 47.1252C22.6868 48.2916 26.6778 48.2916 30.401 47.1252C33.2838 46.2924 36.1282 44.6096 36.1282 41.3082V36.9434H24.6866V35.487H41.8512C45.1782 35.487 46.421 33.168 47.5784 29.6828C48.7742 26.0954 48.723 22.6444 47.5784 18.0447C46.7542 14.7305 45.1824 12.2363 41.8512 12.2363H37.5546ZM31.1228 39.8518C31.5566 39.8424 31.9834 39.9628 32.3486 40.1972C32.7138 40.4316 33.0008 40.7696 33.173 41.168C33.3452 41.5664 33.3946 42.007 33.3152 42.4336C33.2356 42.8602 33.0308 43.2536 32.7266 43.5632C32.4224 43.8728 32.033 44.0846 31.6078 44.1718C31.1826 44.2588 30.7412 44.2172 30.3398 44.0522C29.9384 43.8872 29.5954 43.6062 29.3544 43.2452C29.1136 42.8842 28.9858 42.4596 28.9874 42.0258C28.9838 41.4548 29.2066 40.9056 29.6066 40.4984C30.0068 40.091 30.5518 39.8586 31.1228 39.8518Z" fill="url(#paint1_linear_1958_2820)"/>
</g>
</g>
</g>
<defs>
<linearGradient id="paint0_linear_1958_2820" x1="-0.295105" y1="1.52047" x2="26.1707" y2="23.8896" gradientUnits="userSpaceOnUse">
<stop stop-color="#5A9FD4"/>
<stop offset="1" stop-color="#306998"/>
</linearGradient>
<linearGradient id="paint1_linear_1958_2820" x1="35.8564" y1="38.1726" x2="26.3244" y2="24.923" gradientUnits="userSpaceOnUse">
<stop stop-color="#FFD43B"/>
<stop offset="1" stop-color="#FFE873"/>
</linearGradient>
<clipPath id="clip0_1958_2820">
<rect width="48" height="48" fill="white" transform="translate(0.978516)"/>
</clipPath>
<clipPath id="clip1_1958_2820">
<rect width="48" height="48" fill="white" transform="translate(0.978516)"/>
</clipPath>
</defs>
</svg>
