<svg width="49" height="48" viewBox="0 0 49 48" fill="none" xmlns="http://www.w3.org/2000/svg">
<g clip-path="url(#clip0_1958_2932)">
<g clip-path="url(#clip1_1958_2932)">
<g clip-path="url(#clip2_1958_2932)">
<mask id="mask0_1958_2932" style="mask-type:luminance" maskUnits="userSpaceOnUse" x="4" y="0" width="40" height="48">
<path d="M43.7393 22.1484L30.8191 35.0734L43.7393 47.9982H28.9753L23.4347 42.4576L16.0504 35.0734L28.9753 22.1484H43.7393ZM28.9753 0L4.97852 23.9968L12.3629 31.3812L43.7393 0H28.9753Z" fill="white"/>
</mask>
<g mask="url(#mask0_1958_2932)">
<path d="M23.4344 42.4576L43.739 22.1484H28.975L16.0547 35.0734L23.4344 42.4576Z" fill="#39CEFD"/>
</g>
<mask id="mask1_1958_2932" style="mask-type:luminance" maskUnits="userSpaceOnUse" x="4" y="0" width="40" height="48">
<path d="M43.7393 22.1484L30.8191 35.0734L43.7393 47.9982H28.9753L23.4347 42.4576L16.0504 35.0734L28.9753 22.1484H43.7393ZM28.9753 0L4.97852 23.9968L12.3629 31.3812L43.7393 0H28.9753Z" fill="white"/>
</mask>
<g mask="url(#mask1_1958_2932)">
<path d="M4.97852 23.9968L28.9753 0H43.7393L12.3629 31.3812L4.97852 23.9968Z" fill="#39CEFD"/>
</g>
<mask id="mask2_1958_2932" style="mask-type:luminance" maskUnits="userSpaceOnUse" x="4" y="0" width="40" height="48">
<path d="M43.7393 22.1484L30.8191 35.0734L43.7393 47.9982H28.9753L23.4347 42.4576L16.0504 35.0734L28.9753 22.1484H43.7393ZM28.9753 0L4.97852 23.9968L12.3629 31.3812L43.7393 0H28.9753Z" fill="white"/>
</mask>
<g mask="url(#mask2_1958_2932)">
<path d="M28.9742 47.9934H43.7382L30.8178 35.0732L23.4336 42.4574L28.9742 47.9934Z" fill="#03569B"/>
</g>
<mask id="mask3_1958_2932" style="mask-type:luminance" maskUnits="userSpaceOnUse" x="4" y="0" width="40" height="48">
<path d="M43.7393 22.1484L30.8191 35.0734L43.7393 47.9982H28.9753L23.4347 42.4576L16.0504 35.0734L28.9753 22.1484H43.7393ZM28.9753 0L4.97852 23.9968L12.3629 31.3812L43.7393 0H28.9753Z" fill="white"/>
</mask>
<g mask="url(#mask3_1958_2932)">
<path d="M30.8178 35.0732L23.4336 42.4574L34.3854 38.6636L30.8178 35.0732Z" fill="url(#paint0_linear_1958_2932)"/>
</g>
<mask id="mask4_1958_2932" style="mask-type:luminance" maskUnits="userSpaceOnUse" x="4" y="0" width="40" height="48">
<path d="M43.7393 22.1484L30.8191 35.0734L43.7393 47.9982H28.9753L23.4347 42.4576L16.0504 35.0734L28.9753 22.1484H43.7393ZM28.9753 0L4.97852 23.9968L12.3629 31.3812L43.7393 0H28.9753Z" fill="white"/>
</mask>
<g mask="url(#mask4_1958_2932)">
<path d="M16.0547 35.068L23.439 27.6836L30.8234 35.068L23.439 42.457L16.0547 35.068Z" fill="#16B9FD"/>
</g>
<path d="M43.7393 22.1504L30.8191 35.0752L43.7393 48.0002H28.9753L23.4347 42.4596L16.0504 35.0752L28.9753 22.1504H43.7393ZM28.9753 0.00195312L4.97852 23.9988L12.3629 31.383L43.7393 0.00195312H28.9753Z" fill="url(#paint1_radial_1958_2932)"/>
</g>
</g>
</g>
<defs>
<linearGradient id="paint0_linear_1958_2932" x1="-1153.39" y1="-518.876" x2="-1153.18" y2="-519.09" gradientUnits="userSpaceOnUse">
<stop stop-color="#1A237E" stop-opacity="0.4"/>
<stop offset="1" stop-color="#1A237E" stop-opacity="0"/>
</linearGradient>
<radialGradient id="paint1_radial_1958_2932" cx="0" cy="0" r="1" gradientUnits="userSpaceOnUse" gradientTransform="translate(-1053.71 -431.72) scale(2.27946)">
<stop stop-color="white" stop-opacity="0.1"/>
<stop offset="1" stop-color="white" stop-opacity="0"/>
</radialGradient>
<clipPath id="clip0_1958_2932">
<rect width="48" height="48" fill="white" transform="translate(0.978516)"/>
</clipPath>
<clipPath id="clip1_1958_2932">
<rect width="48" height="48" fill="white" transform="translate(0.978516)"/>
</clipPath>
<clipPath id="clip2_1958_2932">
<rect width="48" height="48" fill="white" transform="translate(0.978516)"/>
</clipPath>
</defs>
</svg>
