<svg width="49" height="48" viewBox="0 0 49 48" fill="none" xmlns="http://www.w3.org/2000/svg">
<g clip-path="url(#clip0_1958_3030)">
<g clip-path="url(#clip1_1958_3030)">
<path fill-rule="evenodd" clip-rule="evenodd" d="M23.0717 9.68908C23.4259 9.7891 23.8001 9.8427 24.1875 9.8427C24.5761 9.8427 24.9517 9.78874 25.3067 9.68806L37.4027 30.198C37.1319 30.4508 36.8933 30.7452 36.6975 31.0786C36.5029 31.4102 36.3631 31.7582 36.2753 32.1124H12.0998C12.012 31.7584 11.8721 31.4104 11.6773 31.0786C11.4807 30.7474 11.2427 30.4546 10.9734 30.203L23.0717 9.68908ZM21.3061 8.6474C21.3435 8.68528 21.3815 8.72242 21.4205 8.75878L9.3218 29.2734C9.26946 29.2586 9.21684 29.2448 9.16392 29.232V18.7664C10.1834 18.5183 11.1021 17.8817 11.666 16.9214C12.2292 15.9622 12.3336 14.8681 12.0451 13.882L21.3061 8.6474ZM28.0275 7.04226C28.1351 6.68722 28.1929 6.311 28.1929 5.92134C28.1929 3.7528 26.4025 2 24.1875 2C21.9723 2 20.1819 3.7528 20.1819 5.92134C20.1819 6.3089 20.2391 6.68316 20.3457 7.03652L11.1017 12.2616C10.8424 11.9935 10.5399 11.7568 10.1969 11.5618C8.28024 10.4832 5.82414 11.1236 4.72234 13C3.62054 14.8764 4.27474 17.2809 6.19142 18.3596C6.53358 18.5521 6.89294 18.6899 7.25872 18.7756V29.2268C6.89706 29.3128 6.54162 29.4498 6.2027 29.6404C4.28602 30.7304 3.63184 33.1236 4.73364 35C5.83544 36.8764 8.28006 37.5168 10.2082 36.4382C10.5476 36.2452 10.8474 36.0114 11.1048 35.7468L20.3441 40.9692C20.2385 41.3208 20.1819 41.6932 20.1819 42.0786C20.1819 44.2472 21.9723 46 24.1875 46C26.4025 46 28.1929 44.236 28.1929 42.0786C28.1929 41.6466 28.1219 41.2312 27.9907 40.8428L37.1759 35.651C37.4535 35.9562 37.7851 36.2234 38.1667 36.4382C40.0833 37.5168 42.5395 36.8764 43.6413 35C44.7545 33.1236 44.1003 30.7304 42.1721 29.6404C41.8335 29.4498 41.4781 29.313 41.1163 29.227V18.7756C41.4821 18.6899 41.8415 18.5521 42.1837 18.3596C44.1003 17.2697 44.7545 14.8764 43.6527 13C42.5395 11.1236 40.0947 10.4832 38.1781 11.5618C37.8333 11.7579 37.5293 11.9961 37.2691 12.266L28.0275 7.04226ZM26.9571 8.75628C26.9937 8.72208 27.0295 8.68722 27.0647 8.6517L36.3283 13.8878C36.0419 14.8724 36.1469 15.9641 36.7091 16.9214C37.2729 17.8817 38.1915 18.5183 39.2111 18.7664V29.2308C39.1591 29.2434 39.1075 29.2568 39.0561 29.2714L26.9571 8.75628ZM36.3531 34.2348L27.1497 39.4368C26.4175 38.6504 25.3623 38.1574 24.1875 38.1574C23.0531 38.1574 22.0301 38.617 21.3019 39.3568L12.0531 34.1292C12.068 34.0788 12.0818 34.0284 12.0946 33.9776H36.2791C36.3009 34.064 36.3255 34.1498 36.3531 34.2348Z" fill="#E535AB"/>
</g>
</g>
<defs>
<clipPath id="clip0_1958_3030">
<rect width="48" height="48" fill="white" transform="translate(0.1875)"/>
</clipPath>
<clipPath id="clip1_1958_3030">
<rect width="48" height="48" fill="white" transform="translate(0.1875)"/>
</clipPath>
</defs>
</svg>
