<svg width="49" height="48" viewBox="0 0 49 48" fill="none" xmlns="http://www.w3.org/2000/svg">
<g clip-path="url(#clip0_1958_2890)">
<g clip-path="url(#clip1_1958_2890)">
<path d="M48.1875 23.3682C48.1875 20.19 44.2055 17.1778 38.1003 15.3099C39.5091 9.09016 38.8829 4.14172 36.1239 2.55744C35.4555 2.18242 34.6987 1.99331 33.9323 2.00978V4.19062C34.3197 4.17862 34.7037 4.26616 35.0477 4.44488C36.3783 5.20768 36.9555 8.1122 36.5055 11.848C36.3979 12.7673 36.2217 13.7354 36.0065 14.7232C33.9615 14.2305 31.8859 13.8744 29.7937 13.6572C28.5473 11.9386 27.1877 10.305 25.7235 8.76744C28.9131 5.80424 31.9071 4.18084 33.9421 4.18084V2C31.2515 2 27.7293 3.91678 24.1679 7.24184C20.6065 3.93634 17.0844 2.03912 14.3938 2.03912V4.21996C16.4191 4.21996 19.4227 5.83358 22.6123 8.77722C21.1553 10.3095 19.8051 11.94 18.5715 13.6572C16.475 13.8719 14.3958 14.2314 12.3489 14.733C12.1239 13.755 11.9576 12.8064 11.8402 11.8969C11.3803 8.1611 11.9478 5.25658 13.2686 4.484C13.5621 4.30798 13.9437 4.22974 14.3938 4.22974V2.0489C13.6212 2.03248 12.8581 2.22148 12.1826 2.59656C9.43332 4.18084 8.81694 9.1195 10.2356 15.3197C4.15 17.1974 0.1875 20.1998 0.1875 23.3682C0.1875 26.5368 4.16956 29.5588 10.2747 31.4266C8.86586 37.6464 9.49202 42.5948 12.2511 44.1792C12.8871 44.5508 13.6306 44.7268 14.4525 44.7268C17.1431 44.7268 20.6653 42.81 24.2267 39.485C27.7879 42.7904 31.3103 44.6876 34.0007 44.6876C34.7733 44.704 35.5365 44.515 36.2119 44.14C38.9613 42.5558 39.5777 37.617 38.1589 31.4168C44.2251 29.549 48.1875 26.5368 48.1875 23.3682ZM35.4489 16.8453C35.0869 18.1069 34.6367 19.4076 34.1279 20.7082C33.7269 19.9259 33.3061 19.1435 32.8463 18.3612C32.3865 17.5788 31.9169 16.816 31.4375 16.0728C32.8267 16.2781 34.1671 16.5324 35.4489 16.8453ZM30.9677 27.2606C30.2047 28.5808 29.4219 29.8326 28.6099 30.9964C27.1521 31.1234 25.6747 31.192 24.1875 31.192C22.7003 31.192 21.2327 31.1234 19.7847 31.0062C18.9727 29.8424 18.1834 28.6036 17.417 27.2898C16.6734 26.012 15.9951 24.7146 15.382 23.3976C15.9886 22.0872 16.6734 20.7768 17.4072 19.4956C18.1704 18.1754 18.9531 16.9236 19.7652 15.7598C21.2229 15.6327 22.7003 15.5642 24.1875 15.5642C25.6747 15.5642 27.1423 15.6327 28.5903 15.75C29.4023 16.9138 30.1915 18.1525 30.9579 19.4663C31.7015 20.7474 32.3799 22.0448 32.9931 23.3586C32.3767 24.669 31.7015 25.9794 30.9677 27.2606ZM34.1279 25.9892C34.6563 27.2996 35.1063 28.6102 35.4781 29.8814C34.1965 30.1944 32.8463 30.4584 31.4471 30.6638C31.9265 29.9108 32.4061 29.1382 32.8561 28.346C33.3061 27.554 33.7269 26.7716 34.1279 25.9892ZM24.2071 36.424C23.2473 35.4282 22.3395 34.3836 21.4871 33.2946C22.3677 33.3336 23.2679 33.363 24.1777 33.363C25.0877 33.363 26.0073 33.3434 26.8977 33.2946C26.0579 34.3854 25.1597 35.43 24.2071 36.424ZM16.9278 30.6638C15.5385 30.4584 14.1981 30.2042 12.9164 29.8912C13.2784 28.6296 13.7285 27.329 14.2372 26.0284C14.6384 26.8106 15.0591 27.593 15.5189 28.3754C15.9788 29.1578 16.4484 29.9206 16.9278 30.6638ZM24.1581 10.3126C25.1179 11.3084 26.0257 12.353 26.8781 13.4421C25.9975 13.4029 25.0975 13.3736 24.1875 13.3736C23.2775 13.3736 22.3579 13.3932 21.4675 13.4421C22.3073 12.3512 23.2055 11.3065 24.1581 10.3126ZM16.918 16.0728C16.4386 16.8258 15.9592 17.5984 15.5091 18.3905C15.0591 19.1826 14.6384 19.9552 14.2372 20.7376C13.7089 19.4271 13.2588 18.1167 12.8871 16.8453C14.1687 16.5422 15.5189 16.2781 16.918 16.0728ZM8.06358 28.3168C4.60006 26.84 2.35954 24.9036 2.35954 23.3682C2.35954 21.8328 4.60006 19.8868 8.06358 18.4198C8.905 18.058 9.82468 17.7353 10.7737 17.4321C11.3723 19.4647 12.1078 21.4546 12.9751 23.3878C12.1171 25.3116 11.3914 27.2916 10.8031 29.3142C9.83446 29.011 8.91478 28.6786 8.06358 28.3168ZM13.3273 42.2916C11.9967 41.5288 11.4195 38.6244 11.8695 34.8886C11.9771 33.9692 12.1533 33.0012 12.3685 32.0134C14.4135 32.506 16.489 32.8622 18.5813 33.0794C19.8277 34.798 21.1873 36.4316 22.6515 37.9692C19.4619 40.9324 16.468 42.5558 14.4329 42.5558C14.0483 42.56 13.6685 42.4694 13.3273 42.2916ZM36.5349 34.8396C36.9947 38.5754 36.4273 41.48 35.1063 42.2526C34.8129 42.4286 34.4313 42.5068 33.9813 42.5068C31.9559 42.5068 28.9523 40.8932 25.7627 37.9496C27.2197 36.4172 28.5699 34.7868 29.8035 33.0696C31.9001 32.8548 33.9791 32.4954 36.0261 31.9938C36.2457 32.9328 36.4155 33.8828 36.5349 34.8396ZM40.3017 28.3168C39.4603 28.6786 38.5405 29.0012 37.5915 29.3044C36.9929 27.2718 36.2575 25.282 35.3901 23.3488C36.2481 21.425 36.9739 19.4449 37.5621 17.4223C38.5307 17.7255 39.4505 18.058 40.3115 18.4198C43.7749 19.8965 46.0155 21.8328 46.0155 23.3682C46.0155 24.9036 43.7651 26.8498 40.3017 28.3168Z" fill="#61DAFB"/>
<path d="M24.1782 27.8388C26.6476 27.8388 28.6496 25.838 28.6496 23.3696C28.6496 20.9014 26.6476 18.9004 24.1782 18.9004C21.7088 18.9004 19.707 20.9014 19.707 23.3696C19.707 25.838 21.7088 27.8388 24.1782 27.8388Z" fill="#61DAFB"/>
</g>
</g>
<defs>
<clipPath id="clip0_1958_2890">
<rect width="48" height="48" fill="white" transform="translate(0.1875)"/>
</clipPath>
<clipPath id="clip1_1958_2890">
<rect width="48" height="48" fill="white" transform="translate(0.1875)"/>
</clipPath>
</defs>
</svg>
