<svg width="49" height="48" viewBox="0 0 49 48" fill="none" xmlns="http://www.w3.org/2000/svg">
<g clip-path="url(#clip0_1958_3017)">
<g clip-path="url(#clip1_1958_3017)">
<g clip-path="url(#clip2_1958_3017)">
<mask id="mask0_1958_3017" style="mask-type:luminance" maskUnits="userSpaceOnUse" x="0" y="0" width="49" height="48">
<path d="M48.9785 0H0.978516V48H48.9785V0Z" fill="white"/>
</mask>
<g mask="url(#mask0_1958_3017)">
<path fill-rule="evenodd" clip-rule="evenodd" d="M2.46094 39.8009H19.1818C19.1818 39.8009 15.9859 24.0599 26.5673 17.6861C28.8745 16.4751 36.2175 11.9522 48.2385 21.5467C48.6187 21.2047 48.9791 20.9303 48.9791 20.9303C48.9791 20.9303 37.9701 9.07346 25.7169 10.3982C19.5593 10.9929 11.9822 17.0463 7.53836 25.0427C3.09448 33.0391 2.46094 39.8009 2.46094 39.8009Z" fill="#CC0000"/>
<path fill-rule="evenodd" clip-rule="evenodd" d="M2.46094 39.8009H19.1818C19.1818 39.8009 15.9859 24.0599 26.5673 17.6861C28.8745 16.4751 36.2175 11.9522 48.2385 21.5467C48.6187 21.2047 48.9791 20.9303 48.9791 20.9303C48.9791 20.9303 37.9701 9.07346 25.7169 10.3982C19.5593 10.9929 11.9822 17.0463 7.53836 25.0427C3.09448 33.0391 2.46094 39.8009 2.46094 39.8009Z" fill="#CC0000"/>
<path fill-rule="evenodd" clip-rule="evenodd" d="M2.45885 39.8017H19.1797C19.1797 39.8017 15.9838 24.0607 26.5653 17.6869C28.8725 16.4759 36.2153 11.953 48.2363 21.5475C48.6167 21.2055 48.9771 20.9311 48.9771 20.9311C48.9771 20.9311 37.9681 9.07427 25.7147 10.399C19.5355 10.9937 11.9593 17.0471 7.5154 25.0435C3.07152 33.0399 2.45885 39.8017 2.45885 39.8017ZM37.2927 11.6806L37.3781 10.1501C37.1875 10.0355 36.6583 9.75819 35.3249 9.35059L35.2451 10.8566C35.9385 11.1074 36.6157 11.3837 37.2927 11.6806Z" fill="#CC0000"/>
<path fill-rule="evenodd" clip-rule="evenodd" d="M35.2832 16.5215L35.1988 17.9609C35.9034 17.9841 36.6046 18.0759 37.2938 18.2353L37.379 16.8184C36.6878 16.6667 35.9874 16.5675 35.2832 16.5215ZM27.453 9.39332H27.6654L27.2414 8C26.5624 8.00168 25.884 8.0475 25.2102 8.13718L25.6122 9.48542C26.224 9.42052 26.8384 9.38978 27.453 9.39332ZM28.4696 17.8012L28.956 19.3768C29.5512 19.0616 30.167 18.7944 30.7986 18.5772L30.333 17.0703C29.6978 17.2699 29.0754 17.5141 28.4696 17.8012ZM18.8611 11.7929L17.9099 10.2164C17.3807 10.5103 16.8307 10.8327 16.2589 11.1962L17.2328 12.7953C17.7828 12.4298 18.312 12.0878 18.8666 11.7909L18.8611 11.7929ZM23.1996 22.0732L24.2154 23.7174C24.5892 23.1404 25.007 22.598 25.4642 22.0958L24.5112 20.5428C24.0356 21.0128 23.5968 21.5248 23.1996 22.0732ZM20.1309 29.4288L21.8454 30.8916C21.9316 29.99 22.08 29.0966 22.2894 28.2188L20.7663 26.9166C20.5079 27.7394 20.2958 28.5784 20.1309 29.4288ZM10.862 18.5772L9.35889 17.1614C8.80885 17.7326 8.27969 18.3039 7.79319 18.8751L9.42697 20.382C9.87647 19.7544 10.3554 19.152 10.862 18.5772ZM4.47027 28.79L2.03684 27.8298C1.63475 28.8096 1.19 29.955 0.978516 30.5732L3.41195 31.5334C3.68787 30.7594 4.13171 29.6346 4.47027 28.79ZM19.8096 35.2324C19.8393 36.1964 19.9241 37.1574 20.0638 38.11L22.6052 39.0898C22.3898 38.1098 22.2202 37.1186 22.0968 36.12L19.8096 35.2324Z" fill="#CC0000"/>
</g>
</g>
</g>
</g>
<defs>
<clipPath id="clip0_1958_3017">
<rect width="48" height="48" fill="white" transform="translate(0.978516)"/>
</clipPath>
<clipPath id="clip1_1958_3017">
<rect width="48" height="48" fill="white" transform="translate(0.978516)"/>
</clipPath>
<clipPath id="clip2_1958_3017">
<rect width="48" height="48" fill="white" transform="translate(0.978516)"/>
</clipPath>
</defs>
</svg>
