<svg width="49" height="48" viewBox="0 0 49 48" fill="none" xmlns="http://www.w3.org/2000/svg">
<g clip-path="url(#clip0_1958_2830)">
<g clip-path="url(#clip1_1958_2830)">
<path d="M24.1875 46C23.5663 46 22.9867 45.8384 22.4483 45.5554L16.9411 42.362C16.113 41.9174 16.527 41.7556 16.7755 41.6748C17.8935 41.311 18.1005 41.2302 19.26 40.5834C19.3842 40.5026 19.5498 40.543 19.674 40.6238L23.8977 43.0896C24.0633 43.1704 24.2703 43.1704 24.3945 43.0896L40.9163 33.752C41.0819 33.6712 41.1647 33.5094 41.1647 33.3074V14.6725C41.1647 14.4704 41.0819 14.3087 40.9163 14.2278L24.3945 4.93064C24.2289 4.8498 24.0219 4.8498 23.8977 4.93064L7.3759 14.2278C7.21028 14.3087 7.12746 14.5108 7.12746 14.6725V33.3074C7.12746 33.469 7.21028 33.6712 7.3759 33.752L11.8894 36.2986C14.3324 37.5112 15.8645 36.0964 15.8645 34.6816V16.2894C15.8645 16.0469 16.0716 15.8043 16.3614 15.8043H18.4732C18.7217 15.8043 18.9701 16.0064 18.9701 16.2894V34.6816C18.9701 37.875 17.1896 39.7344 14.084 39.7344C13.1316 39.7344 12.3863 39.7344 10.2745 38.724L5.92662 36.2986C4.85002 35.6922 4.1875 34.5604 4.1875 33.3478V14.7129C4.1875 13.5002 4.85002 12.3684 5.92662 11.7621L22.4483 2.42444C23.4835 1.85852 24.8915 1.85852 25.9267 2.42444L42.4483 11.7621C43.5249 12.3684 44.1875 13.5002 44.1875 14.7129V33.3478C44.1875 34.5604 43.5249 35.6922 42.4483 36.2986L25.9267 45.6362C25.3883 45.8788 24.7673 46 24.1875 46ZM29.2807 33.186C22.0343 33.186 20.5437 29.9522 20.5437 27.2034C20.5437 26.961 20.7507 26.7184 21.0405 26.7184H23.1937C23.4421 26.7184 23.6491 26.8802 23.6491 27.1226C23.9805 29.265 24.9329 30.316 29.3221 30.316C32.8003 30.316 34.2911 29.548 34.2911 27.729C34.2911 26.678 33.8769 25.91 28.4525 25.3844C23.9391 24.9398 21.1233 23.9696 21.1233 20.453C21.1233 17.1787 23.9391 15.2384 28.6595 15.2384C33.9597 15.2384 36.5685 17.017 36.8997 20.8976C36.8997 21.0188 36.8583 21.1402 36.7755 21.2614C36.6927 21.3422 36.5685 21.423 36.4443 21.423H34.2911C34.0839 21.423 33.8769 21.2614 33.8355 21.0592C33.3387 18.836 32.0549 18.1084 28.6595 18.1084C24.8501 18.1084 24.3945 19.4019 24.3945 20.372C24.3945 21.5444 24.9329 21.9082 30.0675 22.5548C35.1605 23.2016 37.5623 24.1314 37.5623 27.6078C37.5209 31.165 34.5395 33.186 29.2807 33.186Z" fill="#539E43"/>
</g>
</g>
<defs>
<clipPath id="clip0_1958_2830">
<rect width="48" height="48" fill="white" transform="translate(0.1875)"/>
</clipPath>
<clipPath id="clip1_1958_2830">
<rect width="48" height="48" fill="white" transform="translate(0.1875)"/>
</clipPath>
</defs>
</svg>
