<svg width="49" height="48" viewBox="0 0 49 48" fill="none" xmlns="http://www.w3.org/2000/svg">
<g clip-path="url(#clip0_1958_2878)">
<g clip-path="url(#clip1_1958_2878)">
<g clip-path="url(#clip2_1958_2878)">
<mask id="mask0_1958_2878" style="mask-type:luminance" maskUnits="userSpaceOnUse" x="0" y="0" width="49" height="48">
<path d="M48.9785 0H0.978516V48H48.9785V0Z" fill="white"/>
</mask>
<g mask="url(#mask0_1958_2878)">
<path d="M48.9785 0H0.978516V48H48.9785V0Z" fill="#F7DF1E"/>
<path d="M33.2206 37.5012C34.1874 39.08 35.4454 40.2404 37.67 40.2404C39.539 40.2404 40.733 39.3062 40.733 38.0156C40.733 36.469 39.5062 35.9212 37.4492 35.0212L36.3216 34.5374C33.0666 33.1508 30.9044 31.4136 30.9044 27.7412C30.9044 24.3584 33.4818 21.7832 37.51 21.7832C40.3778 21.7832 42.4396 22.7812 43.9254 25.3946L40.413 27.6498C39.6396 26.2632 38.8054 25.717 37.51 25.717C36.2148 25.717 35.3516 26.555 35.3516 27.6498C35.3516 29.003 36.1898 29.5508 38.125 30.389L39.2526 30.872C43.085 32.5154 45.2488 34.1908 45.2488 37.9576C45.2488 42.0186 42.0586 44.2434 37.7744 44.2434C33.4902 44.2434 30.8792 42.2472 29.555 39.6308L33.2206 37.5012ZM17.2868 37.8922C17.9954 39.1492 18.64 40.2122 20.1897 40.2122C21.7394 40.2122 22.6064 39.6324 22.6064 37.3778V22.0408H27.117V37.4388C27.117 42.1092 24.3786 44.235 20.3817 44.235C16.7703 44.235 14.6788 42.366 13.6152 40.1146L17.2868 37.8922Z" fill="black"/>
</g>
</g>
</g>
</g>
<defs>
<clipPath id="clip0_1958_2878">
<rect width="48" height="48" fill="white" transform="translate(0.978516)"/>
</clipPath>
<clipPath id="clip1_1958_2878">
<rect width="48" height="48" fill="white" transform="translate(0.978516)"/>
</clipPath>
<clipPath id="clip2_1958_2878">
<rect width="48" height="48" fill="white" transform="translate(0.978516)"/>
</clipPath>
</defs>
</svg>
