<svg width="49" height="48" viewBox="0 0 49 48" fill="none" xmlns="http://www.w3.org/2000/svg">
<g clip-path="url(#clip0_1958_2837)">
<g clip-path="url(#clip1_1958_2837)">
<path d="M13.9056 20.3434C13.9056 20.9296 13.9695 21.4048 14.0812 21.7532C14.2089 22.1018 14.3686 22.4818 14.5921 22.8938C14.6719 23.0204 14.7038 23.1472 14.7038 23.258C14.7038 23.4164 14.608 23.5748 14.4005 23.7332L13.3947 24.3986C13.2511 24.4936 13.1074 24.541 12.9797 24.541C12.82 24.541 12.6604 24.4618 12.5007 24.3194C12.2772 24.0818 12.0857 23.8282 11.926 23.5748C11.7664 23.3056 11.6067 23.0046 11.4311 22.6402C10.1859 24.0976 8.62136 24.8262 6.73754 24.8262C5.39654 24.8262 4.32692 24.446 3.54466 23.6858C2.7624 22.9254 2.36328 21.9116 2.36328 20.6444C2.36328 19.2981 2.84222 18.2051 3.81604 17.3814C4.78988 16.5577 6.083 16.1459 7.72734 16.1459C8.27014 16.1459 8.8289 16.1934 9.41958 16.2726C10.0103 16.3518 10.6169 16.4785 11.2555 16.6211V15.4648C11.2555 14.2609 11.0001 13.4214 10.5052 12.9304C9.9943 12.4394 9.13222 12.2018 7.90296 12.2018C7.3442 12.2018 6.76948 12.2651 6.1788 12.4077C5.5881 12.5502 5.01338 12.7245 4.45462 12.9462C4.1992 13.0571 4.00762 13.1205 3.89588 13.1522C3.78412 13.1838 3.7043 13.1997 3.64044 13.1997C3.41694 13.1997 3.30518 13.0413 3.30518 12.7086V11.9325C3.30518 11.679 3.33712 11.489 3.41694 11.3781C3.49676 11.2672 3.64044 11.1563 3.86394 11.0454C4.4227 10.7603 5.0932 10.5227 5.87546 10.3326C6.65772 10.1267 7.48788 10.0317 8.36592 10.0317C10.2657 10.0317 11.6546 10.4594 12.5486 11.3147C13.4267 12.1701 13.8737 13.469 13.8737 15.2113V20.3434H13.9056ZM7.42402 22.7512C7.95084 22.7512 8.49364 22.6562 9.06836 22.466C9.64308 22.276 10.1539 21.9274 10.585 21.4522C10.8404 21.1514 11.032 20.8186 11.1278 20.4386C11.2236 20.0584 11.2874 19.599 11.2874 19.0605V18.3952C10.8245 18.2843 10.3296 18.1893 9.8187 18.1259C9.30784 18.0625 8.81294 18.0309 8.31804 18.0309C7.24842 18.0309 6.46616 18.2368 5.93932 18.6645C5.4125 19.0921 5.15706 19.6941 5.15706 20.486C5.15706 21.2306 5.34864 21.785 5.74776 22.165C6.1309 22.561 6.68966 22.7512 7.42402 22.7512ZM20.2435 24.4618C19.9561 24.4618 19.7646 24.4144 19.6369 24.3034C19.5091 24.2084 19.3974 23.9866 19.3016 23.6858L15.5499 11.4414C15.4542 11.1246 15.4063 10.9187 15.4063 10.8078C15.4063 10.5544 15.534 10.4118 15.7894 10.4118H17.3539C17.6573 10.4118 17.8648 10.4594 17.9765 10.5702C18.1043 10.6653 18.2001 10.887 18.2958 11.188L20.9778 21.674L23.4682 11.188C23.5482 10.8712 23.6438 10.6653 23.7716 10.5702C23.8994 10.4752 24.1228 10.4118 24.4102 10.4118H25.6874C25.9906 10.4118 26.1982 10.4594 26.326 10.5702C26.4536 10.6653 26.5654 10.887 26.6292 11.188L29.1516 21.8008L31.9136 11.188C32.0092 10.8712 32.121 10.6653 32.2328 10.5702C32.3606 10.4752 32.568 10.4118 32.8554 10.4118H34.3402C34.5956 10.4118 34.7392 10.5386 34.7392 10.8078C34.7392 10.887 34.7232 10.9662 34.7072 11.0613C34.6914 11.1563 34.6594 11.283 34.5956 11.4573L30.748 23.7016C30.6524 24.0184 30.5406 24.2242 30.4128 24.3194C30.2852 24.4144 30.0776 24.4778 29.8062 24.4778H28.4332C28.13 24.4778 27.9224 24.4302 27.7946 24.3194C27.667 24.2084 27.5552 24.0026 27.4914 23.6858L25.0168 13.469L22.5584 23.6698C22.4784 23.9866 22.3828 24.1926 22.255 24.3034C22.1272 24.4144 21.9038 24.4618 21.6164 24.4618H20.2435ZM40.7578 24.8896C39.9276 24.8896 39.0976 24.7946 38.2992 24.6044C37.501 24.4144 36.8784 24.2084 36.4634 23.9708C36.208 23.8282 36.0324 23.6698 35.9684 23.5274C35.9046 23.3848 35.8726 23.2264 35.8726 23.0838V22.276C35.8726 21.9434 36.0004 21.785 36.2398 21.785C36.3356 21.785 36.4314 21.8008 36.5272 21.8324C36.623 21.8642 36.7668 21.9274 36.9264 21.9908C37.4692 22.2284 38.0598 22.4186 38.6824 22.5452C39.321 22.672 39.9436 22.7354 40.5822 22.7354C41.588 22.7354 42.3702 22.561 42.913 22.2126C43.4558 21.8642 43.7432 21.3572 43.7432 20.7078C43.7432 20.2642 43.5996 19.9 43.3122 19.599C43.0248 19.2981 42.482 19.0288 41.6998 18.7753L39.3848 18.0625C38.2194 17.6982 37.3574 17.1597 36.8306 16.4469C36.3038 15.7499 36.0324 14.9737 36.0324 14.1501C36.0324 13.4848 36.176 12.8987 36.4634 12.3918C36.7508 11.885 37.1338 11.4414 37.6128 11.093C38.0918 10.7286 38.6346 10.4594 39.2732 10.2693C39.9118 10.0792 40.5822 10 41.2846 10C41.6358 10 42.003 10.0158 42.3542 10.0634C42.7214 10.1109 43.0568 10.1742 43.392 10.2376C43.7112 10.3168 44.0146 10.396 44.302 10.491C44.5894 10.5861 44.8128 10.6811 44.9724 10.7762C45.196 10.9029 45.3556 11.0296 45.4514 11.1722C45.5472 11.2989 45.595 11.4731 45.595 11.6949V12.4394C45.595 12.772 45.4674 12.9462 45.2278 12.9462C45.1002 12.9462 44.8926 12.8829 44.6212 12.7562C43.7112 12.3443 42.6896 12.1384 41.556 12.1384C40.646 12.1384 39.9276 12.281 39.4328 12.5819C38.9378 12.8829 38.6824 13.3422 38.6824 13.9917C38.6824 14.4352 38.842 14.8153 39.1614 15.1163C39.4806 15.4173 40.0714 15.7182 40.9174 15.9875L43.1844 16.7003C44.3338 17.0646 45.164 17.5715 45.659 18.2209C46.1538 18.8704 46.3932 19.6149 46.3932 20.4386C46.3932 21.1196 46.2496 21.7374 45.9782 22.276C45.6908 22.8146 45.3078 23.2898 44.8128 23.6698C44.318 24.0658 43.7272 24.351 43.0408 24.557C42.3224 24.7786 41.572 24.8896 40.7578 24.8896Z" fill="white"/>
<path fill-rule="evenodd" clip-rule="evenodd" d="M43.7736 32.588C38.5212 36.4372 30.8902 38.4806 24.3288 38.4806C15.1333 38.4806 6.84767 35.1066 0.589603 29.4992C0.0947033 29.0558 0.54171 28.4538 1.1324 28.8024C7.90133 32.699 16.2508 35.059 24.8876 35.059C30.7146 35.059 37.1164 33.8552 43.0072 31.3842C43.8854 30.9882 44.6356 31.9544 43.7736 32.588Z" fill="#FF9900"/>
<path fill-rule="evenodd" clip-rule="evenodd" d="M45.9584 30.1172C45.2878 29.2618 41.5202 29.7054 39.812 29.9114C39.3012 29.9746 39.2214 29.5312 39.6844 29.1986C42.6856 27.1076 47.6186 27.7096 48.1934 28.4066C48.7682 29.1194 48.0338 34.0138 45.224 36.3582C44.793 36.7226 44.3778 36.5324 44.5694 36.0572C45.208 34.489 46.6288 30.9568 45.9584 30.1172Z" fill="#FF9900"/>
</g>
</g>
<defs>
<clipPath id="clip0_1958_2837">
<rect width="48" height="48" fill="white" transform="translate(0.376953)"/>
</clipPath>
<clipPath id="clip1_1958_2837">
<rect width="48" height="48" fill="white" transform="translate(0.376953)"/>
</clipPath>
</defs>
</svg>
