<svg width="49" height="48" viewBox="0 0 49 48" fill="none" xmlns="http://www.w3.org/2000/svg">
<g clip-path="url(#clip0_1958_2801)">
<g clip-path="url(#clip1_1958_2801)">
<g clip-path="url(#clip2_1958_2801)">
<path d="M48.5898 23.3682C48.5898 20.19 44.6078 17.1778 38.5026 15.3099C39.9114 9.09016 39.2852 4.14172 36.5262 2.55744C35.8578 2.18242 35.101 1.99331 34.3346 2.00978V4.19062C34.722 4.17862 35.106 4.26616 35.45 4.44488C36.7806 5.20768 37.3578 8.1122 36.9078 11.848C36.8002 12.7673 36.624 13.7354 36.4088 14.7232C34.3638 14.2305 32.2882 13.8744 30.196 13.6572C28.9496 11.9386 27.59 10.305 26.1258 8.76744C29.3154 5.80424 32.3094 4.18084 34.3444 4.18084V2C31.6538 2 28.1316 3.91678 24.5702 7.24184C21.0088 3.93634 17.4867 2.03912 14.7961 2.03912V4.21996C16.8214 4.21996 19.8251 5.83358 23.0146 8.77722C21.5576 10.3095 20.2075 11.94 18.9739 13.6572C16.8773 13.8719 14.7982 14.2314 12.7513 14.733C12.5262 13.755 12.3599 12.8064 12.2425 11.8969C11.7827 8.1611 12.3501 5.25658 13.671 4.484C13.9645 4.30798 14.3461 4.22974 14.7961 4.22974V2.0489C14.0235 2.03248 13.2605 2.22148 12.5849 2.59656C9.83566 4.18084 9.21928 9.1195 10.6379 15.3197C4.55234 17.1974 0.589844 20.1998 0.589844 23.3682C0.589844 26.5368 4.5719 29.5588 10.6771 31.4266C9.2682 37.6464 9.89436 42.5948 12.6534 44.1792C13.2894 44.5508 14.033 44.7268 14.8548 44.7268C17.5454 44.7268 21.0676 42.81 24.629 39.485C28.1902 42.7904 31.7126 44.6876 34.403 44.6876C35.1756 44.704 35.9388 44.515 36.6142 44.14C39.3636 42.5558 39.98 37.617 38.5612 31.4168C44.6274 29.549 48.5898 26.5368 48.5898 23.3682ZM35.8512 16.8453C35.4892 18.1069 35.039 19.4076 34.5302 20.7082C34.1292 19.9259 33.7084 19.1435 33.2486 18.3612C32.7888 17.5788 32.3192 16.816 31.8398 16.0728C33.229 16.2781 34.5694 16.5324 35.8512 16.8453ZM31.37 27.2606C30.607 28.5808 29.8242 29.8326 29.0122 30.9964C27.5544 31.1234 26.077 31.192 24.5898 31.192C23.1026 31.192 21.635 31.1234 20.1871 31.0062C19.375 29.8424 18.5858 28.6036 17.8194 27.2898C17.0758 26.012 16.3974 24.7146 15.7843 23.3976C16.3909 22.0872 17.0758 20.7768 17.8096 19.4956C18.5727 18.1754 19.3554 16.9236 20.1675 15.7598C21.6252 15.6327 23.1026 15.5642 24.5898 15.5642C26.077 15.5642 27.5446 15.6327 28.9926 15.75C29.8046 16.9138 30.5938 18.1525 31.3602 19.4663C32.1038 20.7474 32.7822 22.0448 33.3954 23.3586C32.779 24.669 32.1038 25.9794 31.37 27.2606ZM34.5302 25.9892C35.0586 27.2996 35.5086 28.6102 35.8804 29.8814C34.5988 30.1944 33.2486 30.4584 31.8494 30.6638C32.3288 29.9108 32.8084 29.1382 33.2584 28.346C33.7084 27.554 34.1292 26.7716 34.5302 25.9892ZM24.6094 36.424C23.6496 35.4282 22.7418 34.3836 21.8894 33.2946C22.77 33.3336 23.6702 33.363 24.58 33.363C25.49 33.363 26.4096 33.3434 27.3 33.2946C26.4602 34.3854 25.562 35.43 24.6094 36.424ZM17.3302 30.6638C15.9408 30.4584 14.6004 30.2042 13.3187 29.8912C13.6807 28.6296 14.1308 27.329 14.6396 26.0284C15.0407 26.8106 15.4614 27.593 15.9213 28.3754C16.3811 29.1578 16.8507 29.9206 17.3302 30.6638ZM24.5604 10.3126C25.5202 11.3084 26.428 12.353 27.2804 13.4421C26.3998 13.4029 25.4998 13.3736 24.5898 13.3736C23.6798 13.3736 22.7602 13.3932 21.8698 13.4421C22.7096 12.3512 23.6078 11.3065 24.5604 10.3126ZM17.3204 16.0728C16.841 16.8258 16.3615 17.5984 15.9115 18.3905C15.4614 19.1826 15.0407 19.9552 14.6396 20.7376C14.1112 19.4271 13.6612 18.1167 13.2894 16.8453C14.5711 16.5422 15.9213 16.2781 17.3204 16.0728ZM8.46592 28.3168C5.0024 26.84 2.76188 24.9036 2.76188 23.3682C2.76188 21.8328 5.0024 19.8868 8.46592 18.4198C9.30734 18.058 10.227 17.7353 11.1761 17.4321C11.7746 19.4647 12.5101 21.4546 13.3774 23.3878C12.5194 25.3116 11.7937 27.2916 11.2054 29.3142C10.2368 29.011 9.31712 28.6786 8.46592 28.3168ZM13.7297 42.2916C12.3991 41.5288 11.8218 38.6244 12.2719 34.8886C12.3795 33.9692 12.5556 33.0012 12.7708 32.0134C14.8158 32.506 16.8913 32.8622 18.9836 33.0794C20.23 34.798 21.5896 36.4316 23.0538 37.9692C19.8642 40.9324 16.8703 42.5558 14.8353 42.5558C14.4506 42.56 14.0708 42.4694 13.7297 42.2916ZM36.9372 34.8396C37.397 38.5754 36.8296 41.48 35.5086 42.2526C35.2152 42.4286 34.8336 42.5068 34.3836 42.5068C32.3582 42.5068 29.3546 40.8932 26.165 37.9496C27.622 36.4172 28.9722 34.7868 30.2058 33.0696C32.3024 32.8548 34.3814 32.4954 36.4284 31.9938C36.648 32.9328 36.8178 33.8828 36.9372 34.8396ZM40.704 28.3168C39.8626 28.6786 38.9428 29.0012 37.9938 29.3044C37.3952 27.2718 36.6598 25.282 35.7924 23.3488C36.6504 21.425 37.3762 19.4449 37.9644 17.4223C38.933 17.7255 39.8528 18.058 40.7138 18.4198C44.1772 19.8965 46.4178 21.8328 46.4178 23.3682C46.4178 24.9036 44.1674 26.8498 40.704 28.3168Z" fill="#61DAFB"/>
<path d="M24.5806 27.8388C27.05 27.8388 29.052 25.838 29.052 23.3696C29.052 20.9014 27.05 18.9004 24.5806 18.9004C22.1112 18.9004 20.1094 20.9014 20.1094 23.3696C20.1094 25.838 22.1112 27.8388 24.5806 27.8388Z" fill="#61DAFB"/>
</g>
</g>
</g>
<defs>
<clipPath id="clip0_1958_2801">
<rect width="48" height="48" fill="white" transform="translate(0.589844)"/>
</clipPath>
<clipPath id="clip1_1958_2801">
<rect width="48" height="48" fill="white" transform="translate(0.589844)"/>
</clipPath>
<clipPath id="clip2_1958_2801">
<rect width="48" height="48" fill="white" transform="translate(0.589844)"/>
</clipPath>
</defs>
</svg>
