<svg version="1.2" xmlns="http://www.w3.org/2000/svg" viewBox="0 0 512 512" width="48" height="48"><style>.a{fill:#00acd7}</style><path class="a" d="m292.5 173.3l1.2 0.7c13.2 8.8 22.6 20.7 28.9 35.2 1.5 2.2 0.5 3.5-2.5 4.2l-5.1 1.3c-11.4 3-20.5 5.5-31.8 8.4l-6.5 1.7c-2.3 0.6-2.9 0.3-5.4-2.5l-0.3-0.4c-3.5-4-6.2-6.6-10.8-9l-0.9-0.5c-15.7-7.7-31-5.4-45.2 3.8-16.9 10.9-25.6 27.1-25.4 47.3 0.3 20 14 36.4 33.7 39.2 16.9 2.2 31.1-3.8 42.3-16.5 2.3-2.7 4.3-5.7 6.8-9.2h-48.1c-5.3 0-6.5-3.2-4.8-7.5l0.9-2c3.2-7.5 8.2-18.2 11.4-24.3l0.7-1.3c0.9-1.5 2.6-3.5 6-3.5h80.2c3.6-11.5 9.4-22.2 17.2-32.4 18.2-24 40.2-36.4 69.8-41.7 25.5-4.5 49.4-2 71.1 12.7 19.7 13.5 31.9 31.7 35.1 55.6 4.3 33.7-5.5 61.1-28.6 84.5-16.5 16.7-36.7 27.2-59.9 31.9-6.7 1.3-13.4 1.5-19.9 2.3-22.7-0.5-43.4-7-60.8-22-12.3-10.6-20.8-23.6-25-38.8q-4.3 8.9-10.4 16.9c-18 23.7-41.4 38.4-71.1 42.4-24.4 3.2-47.1-1.5-67-16.5-18.5-13.9-28.9-32.4-31.7-55.3-3.2-27.2 4.7-51.6 21.2-73 17.7-23.2 41.1-37.9 69.8-43.2 23-4.1 45-1.6 64.9 11.5zm118.6 35.7l-0.8 0.2c-23.2 5.2-38.1 19.9-43.6 43.4-4.5 19.4 5 39.1 22.9 47.1 13.7 6 27.5 5.2 40.7-1.5 19.7-10.2 30.4-26.2 31.6-47.6-0.2-3.3-0.2-5.8-0.7-8.3-4.5-24.4-26.7-38.3-50.1-33.3zm-294.7 45.6c1 0 1.5 0.7 1.5 1.7l-0.5 6c0 1-1 1.7-1.7 1.7l-54.4-0.2c-1 0-1.2-0.8-0.7-1.5l3.5-6.2c0.5-0.8 1.5-1.5 2.5-1.5zm5.4-23c1 0 1.5 0.8 1.3 1.5l-2 6c-0.3 1-1.3 1.5-2.2 1.5l-118 0.3c-1 0-1.2-0.5-0.7-1.3l5.2-6.7c0.5-0.8 1.8-1.3 2.8-1.3zm12.9-22.9c1 0 1.3 0.7 0.8 1.5l-4.3 6.5c-0.5 0.7-1.7 1.5-2.5 1.5l-90.2-0.3c-1 0-1.2-0.5-0.7-1.2l5.2-6.8c0.5-0.7 1.7-1.2 2.7-1.2z"/></svg>