<svg version="1.2" xmlns="http://www.w3.org/2000/svg" viewBox="0 0 256 264" width="48" height="48"><style>.a{fill:#ff2d20}</style><path class="a" d="m255.9 59.6q0.1 0.5 0.1 1.1v56.6c0 1.4-0.8 2.8-2.1 3.5l-47.5 27.4v54.2c0 1.4-0.7 2.8-2 3.5l-99.1 57.1q-0.4 0.2-0.7 0.3-0.2 0.1-0.3 0.1c-0.7 0.2-1.4 0.2-2.1 0q-0.2-0.1-0.4-0.1c-0.2-0.1-0.4-0.2-0.6-0.3l-99.1-57.1c-1.3-0.7-2.1-2.1-2.1-3.5v-169.7q0-0.6 0.1-1.1c0.1-0.1 0.1-0.3 0.2-0.4q0.1-0.3 0.3-0.6c0-0.1 0.1-0.3 0.2-0.4q0.2-0.2 0.4-0.5c0.1-0.1 0.3-0.2 0.4-0.3 0.2-0.1 0.3-0.2 0.5-0.3l49.5-28.5c1.3-0.8 2.9-0.8 4.1 0l49.6 28.5q0.2 0.1 0.4 0.3 0.3 0.2 0.5 0.3c0.1 0.2 0.2 0.4 0.3 0.5 0.1 0.1 0.2 0.3 0.3 0.4 0.1 0.2 0.2 0.4 0.3 0.6 0 0.1 0.1 0.3 0.1 0.4q0.2 0.5 0.2 1.1v106l41.2-23.8v-54.2q0-0.6 0.2-1.1 0.1-0.2 0.1-0.3 0.1-0.4 0.3-0.7c0.1-0.1 0.2-0.2 0.3-0.3 0.1-0.2 0.2-0.4 0.3-0.5 0.2-0.1 0.3-0.2 0.5-0.3 0.1-0.1 0.2-0.3 0.4-0.4l49.6-28.5c1.2-0.7 2.8-0.7 4.1 0l49.5 28.5c0.2 0.1 0.3 0.3 0.5 0.4q0.2 0.1 0.4 0.3c0.1 0.1 0.2 0.3 0.4 0.5 0.1 0.1 0.2 0.2 0.2 0.3 0.2 0.2 0.2 0.5 0.3 0.7q0.1 0.1 0.2 0.3zm-8.2 55.3v-47.1l-17.3 10-24 13.8v47.1c0 0 41.3-23.8 41.3-23.8zm-49.5 85.1v-47.1l-23.6 13.5-67.2 38.4v47.5zm-190-160.2v160.2l90.8 52.3v-47.5l-47.4-26.9c-0.2-0.1-0.3-0.2-0.5-0.4-0.1-0.1-0.3-0.1-0.4-0.3-0.1-0.1-0.2-0.3-0.3-0.4-0.1-0.1-0.3-0.3-0.3-0.4q-0.2-0.3-0.3-0.5c0-0.2-0.1-0.3-0.2-0.5q0-0.3 0-0.6-0.1-0.2-0.1-0.5v-110.7l-23.9-13.8c0 0-17.4-10-17.4-10zm45.4-30.9l-41.2 23.8 41.2 23.7 41.3-23.8-41.3-23.7zm21.5 148.3l23.9-13.8v-103.6l-17.3 10-23.9 13.8v103.6zm127.1-120.3l-41.2 23.8 41.2 23.7 41.3-23.7zm-4.1 54.7l-24-13.8-17.3-10v47l23.9 13.8 17.4 10zm-95 106l60.5-34.6 30.3-17.2-41.2-23.8-47.5 27.4-43.3 24.9z"/></svg>