<svg version="1.2" xmlns="http://www.w3.org/2000/svg" viewBox="0 0 256 199" width="48" height="48"><style>.a{fill:#0089d6}</style><path class="a" d="m118.4 187.7c32.9-5.8 60.1-10.6 60.4-10.7l0.6-0.1-31.1-36.9c-17.1-20.4-31-37.1-31-37.2 0-0.1 32-88.4 32.2-88.7 0.1-0.1 21.9 37.5 52.9 91.3 29 50.3 53 91.8 53.2 92.2l0.4 0.7h-98.7-98.7c0 0 59.8-10.6 59.8-10.6zm-118.4-11.3c0 0 14.6-25.4 32.5-56.4l32.5-56.4 37.9-31.8c20.9-17.4 38-31.8 38-31.8 0.1 0-0.2 0.7-0.6 1.5-0.4 0.9-18.9 40.6-41.1 88.3l-40.4 86.7h-29.4c-16.2 0-29.4 0-29.4-0.1z"/></svg>