<svg version="1.2" xmlns="http://www.w3.org/2000/svg" viewBox="0 0 256 255" width="48" height="48"><style>.a{fill:#e0234e}</style><path class="a" d="m150.7 0c-1.8 0-3.5 0.4-5.1 0.9 3.4 2.3 5.2 5.2 6.1 8.6 0.1 0.5 0.2 0.8 0.3 1.3 0.1 0.4 0.1 0.8 0.1 1.2 0.3 5.8-1.5 6.5-2.8 9.9-1.9 4.5-1.3 9.2 1 13.1 0.2 0.4 0.4 1 0.8 1.4-2.5-16.7 11.4-19.2 14-24.4 0.2-4.6-3.6-7.6-6.6-9.8-2.8-1.7-5.4-2.2-7.8-2.2zm21.1 3.8c-0.3 1.5-0.1 1.1-0.2 1.9 0 0.5 0 1.2-0.1 1.7-0.1 0.5-0.3 1.1-0.5 1.6-0.1 0.5-0.3 1-0.5 1.6-0.3 0.5-0.5 1-0.7 1.5-0.2 0.3-0.4 0.5-0.6 0.8q-0.2 0.3-0.3 0.6c-0.4 0.4-0.7 0.9-1 1.3-0.4 0.4-0.8 0.9-1.2 1.2v0.1c-0.4 0.3-0.8 0.7-1.3 1-1.4 1.1-3 1.9-4.4 2.9-0.5 0.3-0.9 0.6-1.3 1-0.5 0.3-0.9 0.6-1.3 1-0.5 0.4-0.8 0.8-1.2 1.3-0.3 0.4-0.7 0.8-1 1.3-0.3 0.5-0.6 0.9-0.9 1.4-0.3 0.5-0.5 1-0.7 1.5-0.2 0.5-0.4 1-0.6 1.5-0.2 0.6-0.3 1.1-0.4 1.7-0.1 0.2-0.1 0.6-0.2 0.8 0 0.3 0 0.6-0.1 0.8 0 0.6-0.1 1.2-0.1 1.7 0 0.4 0 0.8 0.1 1.2 0 0.5 0.1 1 0.2 1.6 0.1 0.6 0.2 1.1 0.3 1.6 0.2 0.5 0.4 1.1 0.6 1.6 0.1 0.3 0.3 0.7 0.4 0.9l-15.2-5.9c-2.5-0.7-5.1-1.3-7.6-1.9q-2.1-0.5-4.2-1c-4-0.8-8-1.4-12-1.8-0.2 0-0.2-0.1-0.4-0.1-3.9-0.4-7.8-0.6-11.8-0.6-2.9 0-5.8 0.2-8.7 0.3-4 0.3-8 0.8-12.1 1.5-1 0.1-1.9 0.3-2.9 0.5-2.1 0.4-4.1 0.9-6 1.4q-1.5 0.4-3 0.7c-1 0.4-1.9 0.9-2.8 1.3q-1.1 0.5-2.2 1c-0.1 0.1-0.3 0.1-0.3 0.1-0.7 0.4-1.3 0.6-1.9 1-0.2 0-0.3 0.1-0.4 0.2-0.8 0.3-1.5 0.7-2.1 1-0.4 0.2-0.9 0.5-1.3 0.7-0.2 0.1-0.5 0.2-0.6 0.3-0.6 0.3-1.2 0.7-1.7 1q-0.9 0.5-1.6 1c-0.5 0.3-0.9 0.6-1.3 0.9-0.1 0.1-0.2 0.1-0.2 0.1-0.4 0.3-0.9 0.6-1.3 1 0 0 0 0-0.1 0.1q-0.5 0.4-1 0.8c-0.1 0.1-0.3 0.2-0.4 0.3-0.3 0.2-0.7 0.6-1 0.8-0.1 0.1-0.2 0.2-0.3 0.3-0.4 0.4-0.7 0.7-1.1 1.1-0.1 0-0.1 0.1-0.2 0.1-0.4 0.4-0.8 0.8-1.2 1.2 0 0 0 0.1-0.1 0.1-0.3 0.3-0.7 0.7-1 1.1-0.1 0.1-0.3 0.2-0.5 0.3-0.3 0.4-0.7 0.8-1.1 1.2 0 0.2-0.2 0.2-0.2 0.4-0.6 0.5-1 1-1.6 1.6q-0.1 0.1-0.2 0.2c-1 1.1-2.1 2.2-3.3 3.2-1.2 1.1-2.5 2-3.7 2.9-1.4 0.9-2.6 1.7-4 2.5q-2 1.1-4.2 2c-1.4 0.6-2.8 1.1-4.3 1.6-2.7 0.6-5.6 1.7-8 1.9-0.6 0-1.2 0.1-1.7 0.2-0.6 0.1-1.1 0.3-1.6 0.4q-0.8 0.3-1.6 0.6c-0.6 0.2-1.1 0.5-1.6 0.7-0.5 0.3-1 0.6-1.5 0.9-0.4 0.4-0.9 0.8-1.3 1.2-0.4 0.3-0.9 0.8-1.3 1.2-0.4 0.4-0.8 0.8-1.1 1.3-0.4 0.5-0.8 1-1 1.5-0.4 0.5-0.7 1-1 1.5-0.2 0.6-0.5 1.1-0.7 1.7-0.2 0.6-0.4 1.2-0.6 1.8-0.1 0.5-0.2 1-0.3 1.5 0 0.1-0.1 0.2-0.1 0.2-0.1 0.6-0.1 1.4-0.2 1.8 0 0.5-0.1 0.9-0.1 1.4 0 0.2 0 0.5 0.1 0.8 0 0.5 0.1 0.9 0.2 1.3 0.2 0.4 0.3 0.8 0.5 1.2 0.2 0.4 0.5 0.8 0.7 1.2 0.3 0.4 0.5 0.8 0.9 1.2 0.3 0.3 0.7 0.7 1.1 1.1 0.4 0.4 0.8 0.7 1.3 1 1.5 1.4 1.9 1.9 4 2.9 0.3 0.2 0.7 0.4 1.1 0.6 0 0 0.1 0 0.1 0 0 0.2 0 0.2 0.1 0.4 0.1 0.5 0.2 1 0.3 1.5 0.2 0.6 0.4 1.2 0.6 1.6 0.2 0.4 0.3 0.8 0.5 1.2 0.1 0.2 0.1 0.3 0.2 0.3 0.3 0.6 0.5 1 0.8 1.5q0.5 0.7 1 1.4c0.3 0.4 0.7 0.9 1.1 1.2 0.4 0.4 0.8 0.8 1.3 1.2 0 0 0 0 0.1 0 0.4 0.4 0.8 0.7 1.2 1 0.5 0.3 0.9 0.6 1.4 0.8 0.5 0.3 1 0.6 1.6 0.7 0.4 0.2 0.8 0.4 1.3 0.5 0.1 0.1 0.1 0.1 0.3 0.1 0.2 0.1 0.5 0.2 0.8 0.2-0.2 3.6-0.3 7 0.3 8.2 0.6 1.3 3.5-2.7 6.4-7.4-0.4 4.6-0.7 10 0 11.5 0.7 1.7 4.7-3.5 8.1-9.1 46.9-10.9 89.7 21.5 94.2 67.3-0.9-7.2-9.7-11.2-13.7-10.2-2 4.9-5.4 11.2-10.8 15.1 0.5-4.4 0.3-8.8-0.7-13.2-1.4 6.1-4.3 11.8-8.2 16.6-6.2 0.5-12.5-2.5-15.8-7.1-0.3-0.2-0.4-0.6-0.6-0.9-0.2-0.4-0.3-0.9-0.5-1.3q-0.3-0.7-0.4-1.4c0-0.5 0-1 0-1.5q0-0.5 0-1c0-0.4 0.2-0.9 0.3-1.4 0.1-0.4 0.3-0.9 0.4-1.4 0.3-0.4 0.5-0.9 0.8-1.3 1.2-3.2 1.2-5.8-0.9-7.3-0.4-0.3-0.8-0.5-1.2-0.7-0.3 0-0.6-0.2-0.9-0.2-0.2-0.1-0.3-0.2-0.5-0.2-0.5-0.2-1-0.3-1.4-0.4q-0.7-0.2-1.4-0.2c-0.5 0-1-0.1-1.5-0.1-0.3 0-0.6 0.1-1 0.1-0.5 0-0.9 0-1.4 0.2-0.5 0-0.9 0.1-1.4 0.2-0.5 0.2-0.9 0.3-1.4 0.5-0.4 0.2-0.8 0.4-1.3 0.6-0.4 0.2-0.8 0.5-1.3 0.7-15.4 10-6.2 33.5 4.3 40.3-3.9 0.8-8 1.6-9.1 2.5-0.1 0.1-0.1 0.1-0.1 0.1 2.8 1.7 5.8 3.2 8.9 4.5 4.2 1.3 8.7 2.6 10.7 3.1v0.1q8.2 1.7 16.7 1.2c29.3-2.1 53.3-24.3 57.6-53.7 0.2 0.6 0.3 1.1 0.4 1.7 0.2 1.2 0.5 2.5 0.6 3.7v0.1c0.2 0.6 0.2 1.2 0.3 1.7v0.3c0 0.6 0.1 1.2 0.1 1.7 0.1 0.7 0.1 1.4 0.1 2.2v1c0 0.4 0.1 0.8 0.1 1.1 0 0.4-0.1 0.8-0.1 1.2v0.9c0 0.5 0 0.9 0 1.3 0 0.3 0 0.6-0.1 0.9 0 0.4-0.1 0.9-0.1 1.4 0 0.2 0 0.4 0 0.6-0.1 0.6-0.1 1-0.2 1.6 0 0.2 0 0.4-0.1 0.6 0 0.6-0.2 1.2-0.2 1.9v0.1c-0.2 0.6-0.3 1.3-0.4 1.9v0.1q-0.2 0.9-0.4 1.8c0 0.1-0.1 0.2-0.1 0.3-0.1 0.6-0.3 1.2-0.5 1.8v0.2c-0.2 0.6-0.4 1.2-0.5 1.8-0.1 0.1-0.1 0.2-0.1 0.2q-0.3 1-0.6 1.9c-0.2 0.7-0.4 1.3-0.7 2-0.3 0.6-0.4 1.3-0.7 1.9-0.3 0.6-0.5 1.2-0.8 1.9h-0.1c-0.2 0.6-0.5 1.3-0.8 1.9-0.1 0.2-0.2 0.3-0.2 0.4-0.1 0.1-0.1 0.1-0.2 0.2-4.3 8.7-10.6 16.3-18.5 22.2-0.6 0.4-1.1 0.8-1.6 1.2-0.2 0.1-0.4 0.1-0.5 0.3-0.5 0.3-0.9 0.6-1.4 1l0.2 0.4q1.4-0.2 2.8-0.4h0.1c1.7-0.3 3.4-0.6 5.1-1 0.5 0 1-0.2 1.5-0.3 0.3 0 0.6-0.1 0.9-0.2 0.5 0 0.9-0.2 1.4-0.2 0.4-0.2 0.8-0.2 1.2-0.4 6.6-1.6 13-3.7 19.2-6.3-10.6 14.3-24.6 25.9-41.1 33.5 7.6-0.5 15.2-1.8 22.5-3.9 26.7-7.9 49.1-25.8 62.5-49.9-2.7 15.3-8.8 29.8-17.8 42.5q9.7-6.4 17.7-14.7c14.8-15.5 24.5-35.1 27.8-56.2 2.3 10.5 2.9 21.2 1.9 31.9 47.8-66.6 4-135.6-14.3-153.8-0.1-0.1-0.1-0.2-0.1-0.3-0.1 0-0.1 0-0.1 0.1 0-0.1 0-0.1-0.1-0.1 0 0.8 0 1.6-0.1 2.4-0.2 1.5-0.4 2.9-0.7 4.4-0.3 1.4-0.7 2.9-1.1 4.3-0.5 1.4-1 2.9-1.6 4.3-0.6 1.3-1.2 2.7-2 4-0.7 1.3-1.5 2.6-2.3 3.8-0.9 1.2-1.8 2.4-2.8 3.6-0.9 1.1-2 2.2-3.1 3.3-0.6 0.6-1.2 1.1-1.9 1.6-0.5 0.5-1 0.9-1.5 1.3-1.2 1-2.4 1.8-3.7 2.6-1.3 0.8-2.6 1.6-3.9 2.3-1.4 0.6-2.8 1.2-4.2 1.8-1.4 0.5-2.8 1-4.3 1.4-1.4 0.4-2.9 0.7-4.4 1-1.5 0.3-3 0.4-4.5 0.5-1 0.1-2.1 0.2-3.2 0.2-1.5 0-3-0.2-4.5-0.3-1.5-0.1-3-0.3-4.5-0.7-1.5-0.2-2.9-0.6-4.4-1.1h-0.1c1.5-0.1 3-0.3 4.4-0.5 1.5-0.3 3-0.6 4.4-1 1.5-0.4 3-0.9 4.3-1.4 1.5-0.5 2.9-1.2 4.2-1.9 1.4-0.6 2.6-1.3 4-2.1 1.2-0.9 2.5-1.8 3.7-2.7q1.8-1.4 3.3-3c1.2-1 2.2-2.1 3.2-3.2q1.4-1.8 2.7-3.6c0.2-0.2 0.3-0.4 0.4-0.6 0.7-1.1 1.3-2.1 1.9-3.2 0.8-1.3 1.4-2.6 2-4 0.6-1.4 1.2-2.8 1.6-4.3 0.5-1.4 0.8-2.8 1.1-4.3 0.3-1.5 0.6-2.9 0.7-4.4 0.1-1.5 0.3-3 0.3-4.5 0-1-0.1-2.1-0.2-3.2-0.1-1.5-0.3-2.9-0.5-4.4-0.3-1.5-0.6-3-1-4.4-0.5-1.4-0.9-2.9-1.4-4.3-0.6-1.3-1.2-2.7-1.9-4.1-0.7-1.3-1.4-2.6-2.2-3.9-0.9-1.2-1.8-2.4-2.7-3.6-1-1.1-2-2.2-3-3.4-0.6-0.5-1.2-1.1-1.7-1.6-3-2.3-6.1-4.5-9.2-6.5-0.5-0.3-0.9-0.5-1.4-0.7-2.1-1.3-4.2-2.1-6.2-2.7z"/></svg>