<svg xmlns="http://www.w3.org/2000/svg" xml:space="preserve" width="16.5123mm" height="15.134mm" version="1.0" style="shape-rendering:geometricPrecision; text-rendering:geometricPrecision; image-rendering:optimizeQuality; fill-rule:evenodd; clip-rule:evenodd"
viewBox="0 0 55.1 50.5"
 xmlns:xlink="http://www.w3.org/1999/xlink"
 xmlns:xodm="http://www.corel.com/coreldraw/odm/2003">
 <defs>
  <style type="text/css">
   <![CDATA[
    .fil0 {fill:black}
    .fil1 {fill:white}
   ]]>
  </style>
 </defs>
 <g id="Layer_x0020_1">
  <metadata id="CorelCorpID_0Corel-Layer"/>
  <g id="_2753626332352">
   <path class="fil0" d="M5.77 0.32c-3.61,0.88 -5.55,3.23 -5.61,7.44 -0.06,4.3 -0.01,8.62 -0.02,12.92 -0,4.38 -0.55,22.41 0.52,25.17 1.28,3.29 4.03,4.58 8.6,4.55l26.89 -0.01c2.95,0.01 10.96,0.35 13.31,-0.2 3.45,-0.81 5.48,-3.52 5.5,-7.47 0.04,-6.49 0.47,-35.62 -0.52,-38.09 -1.31,-3.29 -4.03,-4.52 -8.61,-4.52 -5.22,0 -37.77,-0.34 -40.07,0.22z"/>
   <g>
    <path class="fil1" d="M28.52 37.43l4.26 0.01c0.2,-1.13 0.05,-4.34 0.05,-5.67 -0,-1.67 0.12,-1.17 1.39,-2.8 0.12,-0.15 0.2,-0.22 0.32,-0.36 0.19,-0.23 0.14,-0.25 0.39,-0.41 0.31,0.32 0.62,0.74 0.92,1.15l6.26 8.09 5.38 0c-0.15,-0.35 -0.85,-1.16 -1.13,-1.54l-7.87 -10.19c-0.21,-0.27 -0.45,-0.54 -0.62,-0.86 0.34,-0.53 0.8,-0.96 1.2,-1.48 2.27,-2.87 4.95,-5.87 7.19,-8.73 0.2,-0.25 0.4,-0.52 0.6,-0.77l0.62 -0.81 -4.77 0c-0.9,-0.01 -0.7,0.04 -1.11,0.54l-5.79 7.04c-0.19,0.23 -2.72,3.38 -2.97,3.53l-0 -11.12 -4.31 0.02 0 24.35z"/>
    <path class="fil1" d="M11.84 37.38l-0.01 -10.03 7.96 -0.03c0.22,0.38 0.12,4.56 0.12,4.97 0,1.68 0.07,3.46 0,5.12l4.21 -0.03 0.02 -24.29 -4.29 0.01 -0.02 10c-0.88,0.1 -4.73,0.05 -6.06,0.04l-1.77 -0.02c-0.21,-0.05 -0.07,0.06 -0.17,-0.11l-0.01 -9.87 -4.21 0 -0 24.28 4.24 -0.03z"/>
   </g>
  </g>
 </g>
</svg>
